<svg width="210" height="56" viewBox="0 0 210 56" fill="none" xmlns="http://www.w3.org/2000/svg">
<path d="M46.424 14.98V18.328H35.804V25.708H44.084V29.056H35.804V40H31.7V14.98H46.424ZM52.3153 17.536C51.5713 17.536 50.9473 17.284 50.4433 16.78C49.9393 16.276 49.6873 15.652 49.6873 14.908C49.6873 14.164 49.9393 13.54 50.4433 13.036C50.9473 12.532 51.5713 12.28 52.3153 12.28C53.0353 12.28 53.6473 12.532 54.1513 13.036C54.6553 13.54 54.9073 14.164 54.9073 14.908C54.9073 15.652 54.6553 16.276 54.1513 16.78C53.6473 17.284 53.0353 17.536 52.3153 17.536ZM54.3313 20.164V40H50.2273V20.164H54.3313ZM69.7275 19.84C71.2875 19.84 72.6795 20.164 73.9035 20.812C75.1515 21.46 76.1235 22.42 76.8195 23.692C77.5155 24.964 77.8635 26.5 77.8635 28.3V40H73.7955V28.912C73.7955 27.136 73.3515 25.78 72.4635 24.844C71.5755 23.884 70.3635 23.404 68.8275 23.404C67.2915 23.404 66.0675 23.884 65.1555 24.844C64.2675 25.78 63.8235 27.136 63.8235 28.912V40H59.7195V20.164H63.8235V22.432C64.4955 21.616 65.3475 20.98 66.3795 20.524C67.4355 20.068 68.5515 19.84 69.7275 19.84ZM81.7304 29.992C81.7304 28 82.1384 26.236 82.9544 24.7C83.7944 23.164 84.9224 21.976 86.3384 21.136C87.7784 20.272 89.3624 19.84 91.0904 19.84C92.6504 19.84 94.0064 20.152 95.1584 20.776C96.3344 21.376 97.2704 22.132 97.9664 23.044V20.164H102.106V40H97.9664V37.048C97.2704 37.984 96.3224 38.764 95.1224 39.388C93.9224 40.012 92.5544 40.324 91.0184 40.324C89.3144 40.324 87.7544 39.892 86.3384 39.028C84.9224 38.14 83.7944 36.916 82.9544 35.356C82.1384 33.772 81.7304 31.984 81.7304 29.992ZM97.9664 30.064C97.9664 28.696 97.6784 27.508 97.1024 26.5C96.5504 25.492 95.8184 24.724 94.9064 24.196C93.9944 23.668 93.0104 23.404 91.9544 23.404C90.8984 23.404 89.9144 23.668 89.0024 24.196C88.0904 24.7 87.3464 25.456 86.7704 26.464C86.2184 27.448 85.9424 28.624 85.9424 29.992C85.9424 31.36 86.2184 32.56 86.7704 33.592C87.3464 34.624 88.0904 35.416 89.0024 35.968C89.9384 36.496 90.9224 36.76 91.9544 36.76C93.0104 36.76 93.9944 36.496 94.9064 35.968C95.8184 35.44 96.5504 34.672 97.1024 33.664C97.6784 32.632 97.9664 31.432 97.9664 30.064ZM117.505 19.84C119.065 19.84 120.457 20.164 121.681 20.812C122.929 21.46 123.901 22.42 124.597 23.692C125.293 24.964 125.641 26.5 125.641 28.3V40H121.573V28.912C121.573 27.136 121.129 25.78 120.241 24.844C119.353 23.884 118.141 23.404 116.605 23.404C115.069 23.404 113.845 23.884 112.933 24.844C112.045 25.78 111.601 27.136 111.601 28.912V40H107.497V20.164H111.601V22.432C112.273 21.616 113.125 20.98 114.157 20.524C115.213 20.068 116.329 19.84 117.505 19.84ZM129.508 30.064C129.508 28.024 129.916 26.236 130.732 24.7C131.572 23.14 132.724 21.94 134.188 21.1C135.652 20.26 137.332 19.84 139.228 19.84C141.628 19.84 143.608 20.416 145.168 21.568C146.752 22.696 147.82 24.316 148.372 26.428H143.944C143.584 25.444 143.008 24.676 142.216 24.124C141.424 23.572 140.428 23.296 139.228 23.296C137.548 23.296 136.204 23.896 135.196 25.096C134.212 26.272 133.72 27.928 133.72 30.064C133.72 32.2 134.212 33.868 135.196 35.068C136.204 36.268 137.548 36.868 139.228 36.868C141.604 36.868 143.176 35.824 143.944 33.736H148.372C147.796 35.752 146.716 37.36 145.132 38.56C143.548 39.736 141.58 40.324 139.228 40.324C137.332 40.324 135.652 39.904 134.188 39.064C132.724 38.2 131.572 37 130.732 35.464C129.916 33.904 129.508 32.104 129.508 30.064ZM170.642 29.596C170.642 30.34 170.594 31.012 170.498 31.612H155.342C155.462 33.196 156.05 34.468 157.106 35.428C158.162 36.388 159.458 36.868 160.994 36.868C163.202 36.868 164.762 35.944 165.674 34.096H170.102C169.502 35.92 168.41 37.42 166.826 38.596C165.266 39.748 163.322 40.324 160.994 40.324C159.098 40.324 157.394 39.904 155.882 39.064C154.394 38.2 153.218 37 152.354 35.464C151.514 33.904 151.094 32.104 151.094 30.064C151.094 28.024 151.502 26.236 152.318 24.7C153.158 23.14 154.322 21.94 155.81 21.1C157.322 20.26 159.05 19.84 160.994 19.84C162.866 19.84 164.534 20.248 165.998 21.064C167.462 21.88 168.602 23.032 169.418 24.52C170.234 25.984 170.642 27.676 170.642 29.596ZM166.358 28.3C166.334 26.788 165.794 25.576 164.738 24.664C163.682 23.752 162.374 23.296 160.814 23.296C159.398 23.296 158.186 23.752 157.178 24.664C156.17 25.552 155.57 26.764 155.378 28.3H166.358ZM192.86 29.596C192.86 30.34 192.812 31.012 192.716 31.612H177.56C177.68 33.196 178.268 34.468 179.324 35.428C180.38 36.388 181.676 36.868 183.212 36.868C185.42 36.868 186.98 35.944 187.892 34.096H192.32C191.72 35.92 190.628 37.42 189.044 38.596C187.484 39.748 185.54 40.324 183.212 40.324C181.316 40.324 179.612 39.904 178.1 39.064C176.612 38.2 175.436 37 174.572 35.464C173.732 33.904 173.312 32.104 173.312 30.064C173.312 28.024 173.72 26.236 174.536 24.7C175.376 23.14 176.54 21.94 178.028 21.1C179.54 20.26 181.268 19.84 183.212 19.84C185.084 19.84 186.752 20.248 188.216 21.064C189.68 21.88 190.82 23.032 191.636 24.52C192.452 25.984 192.86 27.676 192.86 29.596ZM188.576 28.3C188.552 26.788 188.012 25.576 186.956 24.664C185.9 23.752 184.592 23.296 183.032 23.296C181.616 23.296 180.404 23.752 179.396 24.664C178.388 25.552 177.788 26.764 177.596 28.3H188.576ZM201.003 23.044C201.603 22.036 202.395 21.256 203.379 20.704C204.387 20.128 205.575 19.84 206.943 19.84V24.088H205.899C204.291 24.088 203.067 24.496 202.227 25.312C201.411 26.128 201.003 27.544 201.003 29.56V40H196.899V20.164H201.003V23.044Z" fill="white"/>
<path d="M16 12.3333V41.6666" stroke="white" stroke-width="2" stroke-linecap="round" stroke-linejoin="round"/>
<path d="M22.6667 17.6667H12.6667C11.429 17.6667 10.242 18.1584 9.36684 19.0335C8.49167 19.9087 8 21.0957 8 22.3334C8 23.571 8.49167 24.758 9.36684 25.6332C10.242 26.5084 11.429 27 12.6667 27H19.3333C20.571 27 21.758 27.4917 22.6332 28.3669C23.5083 29.242 24 30.429 24 31.6667C24 32.9044 23.5083 34.0914 22.6332 34.9665C21.758 35.8417 20.571 36.3334 19.3333 36.3334H8" stroke="white" stroke-width="2" stroke-linecap="round" stroke-linejoin="round"/>
</svg>
